# xmcd
#
# Track frame offsets: 
#        180
#        30410
#        54500
#        107213
#        144442
#
# Disc length: 4217 seconds
#
# Revision: 0
# Processed by: cddbd v1.5.2PL0 Copyright (c) Steve Scherf et al.
# Submitted via: ExactAudioCopy v0.99pb4
#
DISCID=3b107705
DTITLE=Josh Fix (feat. Instant Bro) - Live at Paradise 3-16-01
DYEAR=2001
DGENRE=Funk
TTITLE0=Struck My Main Nerve
TTITLE1=Waiting
TTITLE2=Make It Hard
TTITLE3=No Pretend
TTITLE4=Asamba (and more for 30 mins)
EXTD=
EXTT0=
EXTT1=
EXTT2=
EXTT3=
EXTT4=
PLAYORDER=
